<svg xmlns="http://www.w3.org/2000/svg" version="1.1" xmlns:xlink="http://www.w3.org/1999/xlink" xmlns:svgjs="http://svgjs.com/svgjs" width="1920" height="1080" preserveAspectRatio="none" viewBox="0 0 1920 1080"><g mask="url(&quot;#SvgjsMask1040&quot;)" fill="none"><rect width="1920" height="1080" x="0" y="0" fill="url(#SvgjsLinearGradient1041)"></rect><path d="M901.66 360.94L1005.54 360.94L1005.54 464.82L901.66 464.82z" stroke="#037b0b"></path><path d="M1063.84 143.38L1161.22 143.38L1161.22 240.76L1063.84 240.76z" stroke="#e73635"></path><path d="M1842.04 507.23L1855.3 507.23L1855.3 523.55L1842.04 523.55z" fill="#037b0b"></path><path d="M1841.19 375.94L1856.72 375.94L1856.72 447.13L1841.19 447.13z" fill="#037b0b"></path><path d="M288.22 102.88a72.41 72.41 0 1 0-31.47 141.37z" stroke="#d3b714"></path><path d="M1047.29 976.2L1052.05 976.2L1052.05 1063.05L1047.29 1063.05z" stroke="#d3b714"></path><path d="M103.81 82.95L163.06 82.95L163.06 142.2L103.81 142.2z" fill="rgba(198, 213, 23, 1)"></path><path d="M30.38 1057.6L41.86 1057.6L41.86 1069.08L30.38 1069.08z" stroke="rgba(198, 213, 23, 1)"></path><path d="M1792.58 793.25a55.17 55.17 0 1 0-109.58 12.91z" fill="rgba(198, 213, 23, 1)"></path><path d="M1442.54 913.44L1506.22 913.44L1506.22 977.12L1442.54 977.12z" fill="#e73635"></path><path d="M85.77 619.26 a76.24 76.24 0 1 0 152.48 0 a76.24 76.24 0 1 0 -152.48 0z" fill="#037b0b"></path><path d="M1163.88 172.79a39.52 39.52 0 1 0-38.15-69.22z" fill="#d3b714"></path><path d="M919.59 946.65 a20.24 20.24 0 1 0 40.48 0 a20.24 20.24 0 1 0 -40.48 0z" stroke="#d3b714"></path><path d="M442.52 1037.2L455.35 1037.2L455.35 1050.03L442.52 1050.03z" stroke="rgba(99, 15, 106, 1)"></path><path d="M1173.01 484.1 a91.71 91.71 0 1 0 183.42 0 a91.71 91.71 0 1 0 -183.42 0z" stroke="rgba(198, 213, 23, 1)"></path><path d="M107.9 1054.89L115.4 1054.89L115.4 1109.08L107.9 1109.08z" fill="rgba(198, 213, 23, 1)"></path><path d="M1852.88 502.91a77.12 77.12 0 1 0 88.17 126.55z" stroke="rgba(99, 15, 106, 1)"></path><path d="M882 445.49L946.24 445.49L946.24 509.73L882 509.73z" stroke="rgba(198, 213, 23, 1)"></path><path d="M97.94 267.81a46.77 46.77 0 1 0-30.12 88.56z" fill="rgba(99, 15, 106, 1)"></path><path d="M1859.5 285.22L1908.82 285.22L1908.82 334.54L1859.5 334.54z" fill="#037b0b"></path><path d="M1716.79 355.23 a103.97 103.97 0 1 0 207.94 0 a103.97 103.97 0 1 0 -207.94 0z" fill="#d3b714"></path><path d="M885.28 231.71L948.71 231.71L948.71 298.08L885.28 298.08z" fill="rgba(198, 213, 23, 1)"></path><path d="M672.84 231.94L767.41 231.94L767.41 326.51L672.84 326.51z" fill="#e73635"></path></g><defs><mask id="SvgjsMask1040"><rect width="1920" height="1080" fill="#ffffff"></rect></mask><linearGradient x1="10.94%" y1="119.44%" x2="89.06%" y2="-19.44%" gradientUnits="userSpaceOnUse" id="SvgjsLinearGradient1041"><stop stop-color="#0e2a47" offset="0"></stop><stop stop-color="#00459e" offset="1"></stop></linearGradient></defs></svg>